<?xml version="1.0" encoding="UTF-8"?>
<!DOCTYPE svg PUBLIC "-//W3C//DTD SVG 1.1//EN" "http://www.w3.org/Graphics/SVG/1.1/DTD/svg11.dtd">
<svg xmlns="http://www.w3.org/2000/svg" version="1.1" width="500px" height="500px" style="shape-rendering:geometricPrecision; text-rendering:geometricPrecision; image-rendering:optimizeQuality; fill-rule:evenodd; clip-rule:evenodd" xmlns:xlink="http://www.w3.org/1999/xlink">
<g><path style="opacity:1" fill="#0a0a0a" d="M 114.5,203.5 C 111.814,204.988 112.147,205.655 115.5,205.5C 115.5,213.833 115.5,222.167 115.5,230.5C 102.989,230.171 90.6554,230.505 78.5,231.5C 78.9118,233.973 77.9118,235.306 75.5,235.5C 74.5084,235.672 73.8417,235.338 73.5,234.5C 77.5225,232.631 77.1892,231.631 72.5,231.5C 72.8282,226.125 72.4948,220.792 71.5,215.5C 68.4908,216.942 66.8241,215.942 66.5,212.5C 66.8212,210.952 67.8212,210.285 69.5,210.5C 73.5,210.167 73.5,209.833 69.5,209.5C 63.4407,204.37 61.9407,198.037 65,190.5C 72.4553,182.587 79.9553,182.587 87.5,190.5C 91.0412,180.476 98.0412,176.642 108.5,179C 117.595,183.61 120.429,190.777 117,200.5C 116.623,201.942 115.79,202.942 114.5,203.5 Z M 91.5,203.5 C 91.0831,204.124 90.4164,204.457 89.5,204.5C 88.2867,204.253 87.62,203.586 87.5,202.5C 89.1284,201.147 90.4617,201.481 91.5,203.5 Z M 111.5,225.5 C 112.773,226.077 112.773,226.743 111.5,227.5C 110.537,227.03 110.537,226.363 111.5,225.5 Z"/></g>
<g><path style="opacity:0.5" fill="#939393" d="M 87.5,202.5 C 87.62,203.586 88.2867,204.253 89.5,204.5C 90.4164,204.457 91.0831,204.124 91.5,203.5C 92.2891,203.783 92.9558,204.283 93.5,205C 91.1902,205.497 88.8568,205.663 86.5,205.5C 86.2627,204.209 86.596,203.209 87.5,202.5 Z"/></g>
<g><path style="opacity:1" fill="#0a0a0a" d="M 128.5,204.5 C 129.165,207.314 129.498,210.314 129.5,213.5C 129.483,216.913 128.816,219.913 127.5,222.5C 125.745,221.928 124.078,221.094 122.5,220C 120.527,219.505 118.527,219.338 116.5,219.5C 116.5,215.833 116.5,212.167 116.5,208.5C 118.735,208.795 120.735,208.461 122.5,207.5C 124.216,205.975 126.216,204.975 128.5,204.5 Z"/></g>
<g><path style="opacity:0.427" fill="#929292" d="M 128.5,204.5 C 128.56,203.957 128.893,203.624 129.5,203.5C 130.664,210.476 130.831,217.476 130,224.5C 129.005,223.934 128.172,223.267 127.5,222.5C 128.816,219.913 129.483,216.913 129.5,213.5C 129.498,210.314 129.165,207.314 128.5,204.5 Z"/></g>
<g><path style="opacity:0.503" fill="#818181" d="M 114.5,203.5 C 115.806,204.467 116.473,205.801 116.5,207.5C 118.5,207.5 120.5,207.5 122.5,207.5C 120.735,208.461 118.735,208.795 116.5,208.5C 116.5,212.167 116.5,215.833 116.5,219.5C 116.5,223.167 116.5,226.833 116.5,230.5C 116.167,230.5 115.833,230.5 115.5,230.5C 115.5,222.167 115.5,213.833 115.5,205.5C 112.147,205.655 111.814,204.988 114.5,203.5 Z"/></g>
<g><path style="opacity:0.753" fill="#878787" d="M 69.5,209.5 C 69.5,209.833 69.5,210.167 69.5,210.5C 67.8212,210.285 66.8212,210.952 66.5,212.5C 65.7326,211.828 65.0659,210.995 64.5,210C 66.1341,209.506 67.8008,209.34 69.5,209.5 Z"/></g>
<g><path style="opacity:0.25" fill="#bfbfbf" d="M 78.5,231.5 C 90.6554,230.505 102.989,230.171 115.5,230.5C 115.833,230.5 116.167,230.5 116.5,230.5C 114.393,231.468 112.059,231.802 109.5,231.5C 109.599,234.237 109.265,236.904 108.5,239.5C 108.014,237.048 108.014,234.382 108.5,231.5C 100.5,231.5 92.5,231.5 84.5,231.5C 84.2155,233.415 84.5489,235.081 85.5,236.5C 85.5,236.833 85.5,237.167 85.5,237.5C 85.6716,238.492 85.3382,239.158 84.5,239.5C 83.7347,236.904 83.4013,234.237 83.5,231.5C 81.8333,231.5 80.1667,231.5 78.5,231.5 Z"/></g>
<g><path style="opacity:1" fill="#1d1d1d" d="M 365.5,239.5 C 365.5,240.833 365.5,242.167 365.5,243.5C 362.833,243.5 360.167,243.5 357.5,243.5C 357.715,241.821 357.048,240.821 355.5,240.5C 351.573,237.278 347.239,236.778 342.5,239C 341.446,240.388 341.28,241.888 342,243.5C 347.652,245.584 353.485,247.084 359.5,248C 366.358,250.549 368.858,255.383 367,262.5C 364.889,266.944 361.389,269.444 356.5,270C 349.129,271.31 342.129,270.31 335.5,267C 332.976,265.117 331.642,262.617 331.5,259.5C 331.5,258.5 331.5,257.5 331.5,256.5C 334.609,256.264 337.609,256.597 340.5,257.5C 344.476,262.503 349.476,263.669 355.5,261C 358.129,258.211 357.462,256.211 353.5,255C 347.234,254.215 341.234,252.548 335.5,250C 331.633,246.34 330.466,241.84 332,236.5C 332.383,235.944 332.883,235.611 333.5,235.5C 334.833,234.833 335.833,233.833 336.5,232.5C 344.278,228.693 352.278,228.527 360.5,232C 363.2,233.857 364.866,236.357 365.5,239.5 Z"/></g>
<g><path style="opacity:1" fill="#0e0e0e" d="M 172.5,230.5 C 172.5,232.833 172.5,235.167 172.5,237.5C 165.833,237.5 159.167,237.5 152.5,237.5C 152.19,240.713 152.523,243.713 153.5,246.5C 159.167,246.5 164.833,246.5 170.5,246.5C 170.5,248.833 170.5,251.167 170.5,253.5C 164.5,253.5 158.5,253.5 152.5,253.5C 152.5,258.833 152.5,264.167 152.5,269.5C 149.5,269.5 146.5,269.5 143.5,269.5C 143.5,256.5 143.5,243.5 143.5,230.5C 153.167,230.5 162.833,230.5 172.5,230.5 Z"/></g>
<g><path style="opacity:1" fill="#191919" d="M 177.5,230.5 C 180.833,230.5 184.167,230.5 187.5,230.5C 187.5,240.833 187.5,251.167 187.5,261.5C 193.5,261.5 199.5,261.5 205.5,261.5C 205.5,264.167 205.5,266.833 205.5,269.5C 196.167,269.5 186.833,269.5 177.5,269.5C 177.5,256.5 177.5,243.5 177.5,230.5 Z"/></g>
<g><path style="opacity:1" fill="#1c1c1c" d="M 208.5,230.5 C 211.833,230.5 215.167,230.5 218.5,230.5C 218.5,243.5 218.5,256.5 218.5,269.5C 215.167,269.5 211.833,269.5 208.5,269.5C 208.5,256.5 208.5,243.5 208.5,230.5 Z"/></g>
<g><path style="opacity:1" fill="#1a1a1a" d="M 237.5,238.5 C 237.427,240.027 238.094,241.027 239.5,241.5C 240.167,244.167 240.833,244.167 241.5,241.5C 242.906,241.027 243.573,240.027 243.5,238.5C 245.543,230.931 250.543,228.265 258.5,230.5C 258.167,231.167 257.833,231.833 257.5,232.5C 254.442,238.276 251.109,243.943 247.5,249.5C 248.127,250.417 248.461,251.417 248.5,252.5C 248.427,254.027 249.094,255.027 250.5,255.5C 253,258.494 255,261.827 256.5,265.5C 256.427,267.027 257.094,268.027 258.5,268.5C 255.604,269.641 251.938,269.808 247.5,269C 245.041,265.25 242.708,261.417 240.5,257.5C 237.79,261.083 235.457,264.917 233.5,269C 229.5,269.667 225.5,269.667 221.5,269C 222.697,266.985 224.03,265.151 225.5,263.5C 226.906,263.027 227.573,262.027 227.5,260.5C 227.328,259.508 227.662,258.842 228.5,258.5C 229.906,258.027 230.573,257.027 230.5,255.5C 231.441,253.534 232.441,251.534 233.5,249.5C 229.833,243.5 226.167,237.5 222.5,231.5C 230.413,228.279 235.413,230.612 237.5,238.5 Z"/></g>
<g><path style="opacity:0.039" fill="#e2e2e2" d="M 258.5,230.5 C 258.833,230.5 259.167,230.5 259.5,230.5C 259.5,231.167 259.5,231.833 259.5,232.5C 258.833,232.5 258.167,232.5 257.5,232.5C 257.833,231.833 258.167,231.167 258.5,230.5 Z"/></g>
<g><path style="opacity:1" fill="#1b1b1b" d="M 259.5,230.5 C 262.777,230.216 265.943,230.549 269,231.5C 271,239.5 273,247.5 275,255.5C 277.969,247.285 280.469,238.952 282.5,230.5C 284.924,230.192 287.257,230.526 289.5,231.5C 291.908,237.724 293.908,244.057 295.5,250.5C 295.116,252.665 295.783,254.332 297.5,255.5C 298.298,255.043 298.631,254.376 298.5,253.5C 300.008,245.8 301.675,238.133 303.5,230.5C 306.833,230.5 310.167,230.5 313.5,230.5C 310.784,243.317 307.451,255.983 303.5,268.5C 299.833,269.833 296.167,269.833 292.5,268.5C 290.42,262.596 288.753,256.596 287.5,250.5C 286.968,247.54 286.301,247.207 285.5,249.5C 283.775,255.844 281.942,262.178 280,268.5C 276.27,269.46 272.437,269.793 268.5,269.5C 265.342,257.202 262.342,244.869 259.5,232.5C 259.5,231.833 259.5,231.167 259.5,230.5 Z"/></g>
<g><path style="opacity:1" fill="#1d1d1d" d="M 316.5,230.5 C 319.833,230.5 323.167,230.5 326.5,230.5C 326.5,243.5 326.5,256.5 326.5,269.5C 323.167,269.5 319.833,269.5 316.5,269.5C 316.5,256.5 316.5,243.5 316.5,230.5 Z"/></g>
<g><path style="opacity:1" fill="#101010" d="M 381.5,245.5 C 386.975,246.489 392.642,246.822 398.5,246.5C 398.5,241.5 398.5,236.5 398.5,231.5C 401.167,231.5 403.833,231.5 406.5,231.5C 406.5,244.167 406.5,256.833 406.5,269.5C 403.833,269.5 401.167,269.5 398.5,269.5C 398.5,264.167 398.5,258.833 398.5,253.5C 392.5,253.5 386.5,253.5 380.5,253.5C 380.5,258.833 380.5,264.167 380.5,269.5C 377.5,269.5 374.5,269.5 371.5,269.5C 371.5,256.5 371.5,243.5 371.5,230.5C 374.833,230.5 378.167,230.5 381.5,230.5C 381.5,235.5 381.5,240.5 381.5,245.5 Z"/></g>
<g><path style="opacity:0.817" fill="#2b2b2b" d="M 398.5,231.5 C 398.5,231.167 398.5,230.833 398.5,230.5C 401.5,230.5 404.5,230.5 407.5,230.5C 407.829,243.677 407.495,256.677 406.5,269.5C 406.5,256.833 406.5,244.167 406.5,231.5C 403.833,231.5 401.167,231.5 398.5,231.5 Z"/></g>
<g><path style="opacity:0.608" fill="#949494" d="M 336.5,232.5 C 335.833,233.833 334.833,234.833 333.5,235.5C 333.5,233.5 334.5,232.5 336.5,232.5 Z"/></g>
<g><path style="opacity:1" fill="#313131" d="M 66.5,235.5 C 66.5,236.5 66.5,237.5 66.5,238.5C 63.7814,239.913 60.7814,240.58 57.5,240.5C 57.5792,239.07 57.2458,237.736 56.5,236.5C 59.8899,234.803 63.2233,234.47 66.5,235.5 Z"/></g>
<g><path style="opacity:0.882" fill="#585858" d="M 73.5,234.5 C 73.8417,235.338 74.5084,235.672 75.5,235.5C 72.5513,236.368 69.5513,237.368 66.5,238.5C 66.5,237.5 66.5,236.5 66.5,235.5C 68.8056,235.007 71.139,234.674 73.5,234.5 Z"/></g>
<g><path style="opacity:0.831" fill="#7d7d7d" d="M 85.5,237.5 C 85.5,237.167 85.5,236.833 85.5,236.5C 87.1667,236.5 88.8333,236.5 90.5,236.5C 90.5,237.833 90.5,239.167 90.5,240.5C 90.1667,240.5 89.8333,240.5 89.5,240.5C 89.719,239.325 89.3857,238.325 88.5,237.5C 87.8302,239.291 87.1635,240.958 86.5,242.5C 86.7845,240.585 86.4511,238.919 85.5,237.5 Z"/></g>
<g><path style="opacity:1" fill="#2a2a2a" d="M 108.5,239.5 C 111.729,253.307 114.396,266.974 116.5,280.5C 115.833,280.5 115.167,280.5 114.5,280.5C 114.24,276.698 113.406,273.031 112,269.5C 111.28,271.112 111.446,272.612 112.5,274C 111.956,274.717 111.289,275.217 110.5,275.5C 108.489,271.794 107.489,267.794 107.5,263.5C 107.232,261.901 107.566,260.568 108.5,259.5C 108.328,260.492 108.662,261.158 109.5,261.5C 109.5,262.167 109.5,262.833 109.5,263.5C 109.461,264.756 109.961,265.756 111,266.5C 111.78,264.613 111.613,262.946 110.5,261.5C 110.5,261.167 110.5,260.833 110.5,260.5C 110.768,258.901 110.434,257.568 109.5,256.5C 107.992,251.292 106.992,245.959 106.5,240.5C 106.5,239.167 106.5,237.833 106.5,236.5C 105.167,236.5 103.833,236.5 102.5,236.5C 102.5,237.5 102.5,238.5 102.5,239.5C 102.167,241.5 101.833,243.5 101.5,245.5C 100.605,269.838 99.605,294.171 98.5,318.5C 97.1667,318.5 95.8333,318.5 94.5,318.5C 93.4585,297.502 92.4585,276.502 91.5,255.5C 91.5,252.833 91.5,250.167 91.5,247.5C 91.0074,245.194 90.6741,242.861 90.5,240.5C 90.5,239.167 90.5,237.833 90.5,236.5C 88.8333,236.5 87.1667,236.5 85.5,236.5C 84.5489,235.081 84.2155,233.415 84.5,231.5C 92.5,231.5 100.5,231.5 108.5,231.5C 108.014,234.382 108.014,237.048 108.5,239.5 Z M 99.5,237.5 C 98.6939,247.145 98.0273,256.811 97.5,266.5C 96.5,266.5 95.5,266.5 94.5,266.5C 94.4324,258.486 94.099,250.486 93.5,242.5C 93.5,240.833 93.5,239.167 93.5,237.5C 95.5,237.5 97.5,237.5 99.5,237.5 Z M 106.5,240.5 C 106.992,245.959 107.992,251.292 109.5,256.5C 109.737,257.791 109.404,258.791 108.5,259.5C 107.146,252.75 105.479,246.083 103.5,239.5C 103.369,238.624 103.702,237.957 104.5,237.5C 105.176,238.602 105.842,239.602 106.5,240.5 Z M 97.5,270.5 C 97.5,273.167 97.5,275.833 97.5,278.5C 96.8333,280.167 96.1667,281.833 95.5,283.5C 95.5,281.167 95.5,278.833 95.5,276.5C 95.0254,273.918 95.6921,271.918 97.5,270.5 Z"/></g>
<g><path style="opacity:0.646" fill="#686868" d="M 172.5,230.5 C 173.473,232.948 173.806,235.615 173.5,238.5C 166.833,238.5 160.167,238.5 153.5,238.5C 153.5,240.833 153.5,243.167 153.5,245.5C 153.5,245.833 153.5,246.167 153.5,246.5C 152.523,243.713 152.19,240.713 152.5,237.5C 159.167,237.5 165.833,237.5 172.5,237.5C 172.5,235.167 172.5,232.833 172.5,230.5 Z"/></g>
<g><path style="opacity:0.31" fill="#acacac" d="M 99.5,237.5 C 97.5,237.5 95.5,237.5 93.5,237.5C 93.5,239.167 93.5,240.833 93.5,242.5C 92.5386,240.735 92.2053,238.735 92.5,236.5C 95.0593,236.198 97.3926,236.532 99.5,237.5 Z"/></g>
<g><path style="opacity:0.157" fill="#acacac" d="M 106.5,240.5 C 105.842,239.602 105.176,238.602 104.5,237.5C 103.702,237.957 103.369,238.624 103.5,239.5C 103.167,239.5 102.833,239.5 102.5,239.5C 102.5,238.5 102.5,237.5 102.5,236.5C 103.833,236.5 105.167,236.5 106.5,236.5C 106.5,237.833 106.5,239.167 106.5,240.5 Z"/></g>
<g><path style="opacity:0.353" fill="#a3a3a3" d="M 237.5,238.5 C 238.906,238.973 239.573,239.973 239.5,241.5C 238.094,241.027 237.427,240.027 237.5,238.5 Z"/></g>
<g><path style="opacity:0.376" fill="#9e9e9e" d="M 243.5,238.5 C 243.573,240.027 242.906,241.027 241.5,241.5C 241.427,239.973 242.094,238.973 243.5,238.5 Z"/></g>
<g><path style="opacity:0.518" fill="#a1a1a1" d="M 239.5,241.5 C 240.167,241.5 240.833,241.5 241.5,241.5C 240.833,244.167 240.167,244.167 239.5,241.5 Z"/></g>
<g><path style="opacity:0.305" fill="#a8a8a8" d="M 365.5,239.5 C 366.451,240.919 366.784,242.585 366.5,244.5C 363.167,244.5 359.833,244.5 356.5,244.5C 356.567,243.041 356.234,241.708 355.5,240.5C 357.048,240.821 357.715,241.821 357.5,243.5C 360.167,243.5 362.833,243.5 365.5,243.5C 365.5,242.167 365.5,240.833 365.5,239.5 Z"/></g>
<g><path style="opacity:0.289" fill="#cbcbcb" d="M 398.5,230.5 C 398.5,230.833 398.5,231.167 398.5,231.5C 398.5,236.5 398.5,241.5 398.5,246.5C 392.642,246.822 386.975,246.489 381.5,245.5C 386.833,245.5 392.167,245.5 397.5,245.5C 397.179,240.305 397.513,235.305 398.5,230.5 Z"/></g>
<g><path style="opacity:0.161" fill="#c7c7c7" d="M 287.5,250.5 C 286.833,250.167 286.167,249.833 285.5,249.5C 286.301,247.207 286.968,247.54 287.5,250.5 Z"/></g>
<g><path style="opacity:1" fill="#3b3b3b" d="M 85.5,237.5 C 86.4511,238.919 86.7845,240.585 86.5,242.5C 85.704,247.147 85.0373,251.814 84.5,256.5C 83.596,257.209 83.2627,258.209 83.5,259.5C 82.6618,259.842 82.3284,260.508 82.5,261.5C 82.2627,262.791 82.596,263.791 83.5,264.5C 83.6309,265.376 83.2975,266.043 82.5,266.5C 81.8302,264.709 81.1635,263.042 80.5,261.5C 81.7049,254.142 83.0383,246.809 84.5,239.5C 85.3382,239.158 85.6716,238.492 85.5,237.5 Z"/></g>
<g><path style="opacity:1" fill="#444444" d="M 102.5,239.5 C 102.833,239.5 103.167,239.5 103.5,239.5C 105.479,246.083 107.146,252.75 108.5,259.5C 107.566,260.568 107.232,261.901 107.5,263.5C 105.5,257.5 103.5,251.5 101.5,245.5C 101.833,243.5 102.167,241.5 102.5,239.5 Z"/></g>
<g><path style="opacity:1" fill="#454545" d="M 89.5,240.5 C 89.8333,240.5 90.1667,240.5 90.5,240.5C 90.6741,242.861 91.0074,245.194 91.5,247.5C 90.1667,247.5 89.5,248.167 89.5,249.5C 88.6128,254.722 87.2795,259.722 85.5,264.5C 85.7678,262.901 85.4345,261.568 84.5,260.5C 84.5,259.167 84.5,257.833 84.5,256.5C 86.5367,251.384 88.2034,246.051 89.5,240.5 Z"/></g>
<g><path style="opacity:0.538" fill="#949494" d="M 153.5,246.5 C 153.5,246.167 153.5,245.833 153.5,245.5C 159.5,245.5 165.5,245.5 171.5,245.5C 171.5,248.5 171.5,251.5 171.5,254.5C 165.5,254.5 159.5,254.5 153.5,254.5C 153.821,259.695 153.487,264.695 152.5,269.5C 152.5,264.167 152.5,258.833 152.5,253.5C 158.5,253.5 164.5,253.5 170.5,253.5C 170.5,251.167 170.5,248.833 170.5,246.5C 164.833,246.5 159.167,246.5 153.5,246.5 Z"/></g>
<g><path style="opacity:0.035" fill="#c9c9c9" d="M 91.5,247.5 C 91.5,250.167 91.5,252.833 91.5,255.5C 90.8333,253.5 90.1667,251.5 89.5,249.5C 89.5,248.167 90.1667,247.5 91.5,247.5 Z"/></g>
<g><path style="opacity:0.475" fill="#8e8e8e" d="M 248.5,252.5 C 249.906,252.973 250.573,253.973 250.5,255.5C 249.094,255.027 248.427,254.027 248.5,252.5 Z"/></g>
<g><path style="opacity:0.345" fill="#a2a2a2" d="M 295.5,250.5 C 296.1,251.9 297.1,252.9 298.5,253.5C 298.631,254.376 298.298,255.043 297.5,255.5C 295.783,254.332 295.116,252.665 295.5,250.5 Z"/></g>
<g><path style="opacity:0.705" fill="#848484" d="M 398.5,269.5 C 397.513,264.695 397.179,259.695 397.5,254.5C 392.167,254.5 386.833,254.5 381.5,254.5C 381.821,259.695 381.487,264.695 380.5,269.5C 380.5,264.167 380.5,258.833 380.5,253.5C 386.5,253.5 392.5,253.5 398.5,253.5C 398.5,258.833 398.5,264.167 398.5,269.5 Z"/></g>
<g><path style="opacity:0.365" fill="#a5a5a5" d="M 340.5,257.5 C 337.609,256.597 334.609,256.264 331.5,256.5C 331.5,257.5 331.5,258.5 331.5,259.5C 330.566,258.432 330.232,257.099 330.5,255.5C 334.329,254.931 337.663,255.598 340.5,257.5 Z"/></g>
<g><path style="opacity:0.369" fill="#a3a3a3" d="M 230.5,255.5 C 230.573,257.027 229.906,258.027 228.5,258.5C 228.427,256.973 229.094,255.973 230.5,255.5 Z"/></g>
<g><path style="opacity:0.098" fill="#b4b4b4" d="M 109.5,256.5 C 110.434,257.568 110.768,258.901 110.5,260.5C 109.833,260.5 109.5,260.833 109.5,261.5C 108.662,261.158 108.328,260.492 108.5,259.5C 109.404,258.791 109.737,257.791 109.5,256.5 Z"/></g>
<g><path style="opacity:0.165" fill="#c0c0c0" d="M 83.5,259.5 C 83.5,260.167 83.8333,260.5 84.5,260.5C 84.6716,261.492 84.3382,262.158 83.5,262.5C 83.5,261.833 83.1667,261.5 82.5,261.5C 82.3284,260.508 82.6618,259.842 83.5,259.5 Z"/></g>
<g><path style="opacity:1" fill="#292929" d="M 84.5,260.5 C 85.4345,261.568 85.7678,262.901 85.5,264.5C 84.6367,269.619 83.3034,274.619 81.5,279.5C 80.9268,276.341 80.7601,273.008 81,269.5C 79.2954,273.643 78.7954,277.809 79.5,282C 78.8742,282.75 78.3742,283.584 78,284.5C 77.7679,283.263 77.2679,282.263 76.5,281.5C 76.6524,277.738 77.319,274.072 78.5,270.5C 78.0688,269.707 77.7355,268.873 77.5,268C 78.7892,265.965 79.7892,263.799 80.5,261.5C 81.1635,263.042 81.8302,264.709 82.5,266.5C 83.2975,266.043 83.6309,265.376 83.5,264.5C 83.5,263.833 83.5,263.167 83.5,262.5C 84.3382,262.158 84.6716,261.492 84.5,260.5 Z"/></g>
<g><path style="opacity:0.42" fill="#999999" d="M 227.5,260.5 C 227.573,262.027 226.906,263.027 225.5,263.5C 225.427,261.973 226.094,260.973 227.5,260.5 Z"/></g>
<g><path style="opacity:0.294" fill="#a9a9a9" d="M 110.5,261.5 C 111.613,262.946 111.78,264.613 111,266.5C 109.961,265.756 109.461,264.756 109.5,263.5C 110.338,263.158 110.672,262.492 110.5,261.5 Z"/></g>
<g><path style="opacity:0.4" fill="#9d9d9d" d="M 256.5,265.5 C 257.906,265.973 258.573,266.973 258.5,268.5C 257.094,268.027 256.427,267.027 256.5,265.5 Z"/></g>
<g><path style="opacity:1" fill="#616161" d="M 114.5,280.5 C 113.033,277.742 112.367,278.075 112.5,281.5C 111.262,279.786 110.595,277.786 110.5,275.5C 111.289,275.217 111.956,274.717 112.5,274C 111.446,272.612 111.28,271.112 112,269.5C 113.406,273.031 114.24,276.698 114.5,280.5 Z"/></g>
<g><path style="opacity:0.588" fill="#909090" d="M 97.5,270.5 C 95.6921,271.918 95.0254,273.918 95.5,276.5C 94.5318,274.393 94.1984,272.059 94.5,269.5C 95.791,269.263 96.791,269.596 97.5,270.5 Z"/></g>
<g><path style="opacity:1" fill="#343434" d="M 114.5,280.5 C 115.167,280.5 115.833,280.5 116.5,280.5C 119.323,291.611 121.656,302.945 123.5,314.5C 122.5,314.5 121.5,314.5 120.5,314.5C 117.675,303.535 115.009,292.535 112.5,281.5C 112.367,278.075 113.033,277.742 114.5,280.5 Z"/></g>
<g><path style="opacity:1" fill="#3b3b3b" d="M 81.5,279.5 C 79.1606,289.19 76.6606,298.857 74,308.5C 73.7351,310.651 72.7351,312.318 71,313.5C 70.5,313.167 70,312.833 69.5,312.5C 71.7263,302.02 74.0596,291.687 76.5,281.5C 77.2679,282.263 77.7679,283.263 78,284.5C 78.3742,283.584 78.8742,282.75 79.5,282C 78.7954,277.809 79.2954,273.643 81,269.5C 80.7601,273.008 80.9268,276.341 81.5,279.5 Z"/></g>
<g><path style="opacity:0.639" fill="#868686" d="M 97.5,278.5 C 97.6658,283.179 97.4992,287.845 97,292.5C 96.6667,292.833 96.3333,293.167 96,293.5C 95.5017,290.183 95.335,286.85 95.5,283.5C 96.1667,281.833 96.8333,280.167 97.5,278.5 Z"/></g>
</svg>
