<?xml version="1.0" standalone="no"?>
<!DOCTYPE svg PUBLIC "-//W3C//DTD SVG 20010904//EN"
 "http://www.w3.org/TR/2001/REC-SVG-20010904/DTD/svg10.dtd">
<svg version="1.0" xmlns="http://www.w3.org/2000/svg"
 width="399.000000pt" height="121.000000pt" viewBox="0 0 399.000000 121.000000"
 preserveAspectRatio="xMidYMid meet">

<g transform="translate(0.000000,121.000000) scale(0.100000,-0.100000)"
fill="#000000" stroke="none">
<path d="M0 605 l0 -605 1995 0 1995 0 0 605 0 605 -1995 0 -1995 0 0 -605z
m409 393 c-51 -36 -61 -48 -92 -103 -21 -38 -22 -51 -22 -265 0 -200 2 -229
19 -260 36 -68 127 -144 146 -123 4 4 11 19 15 33 7 22 6 23 -9 11 -9 -8 -16
-9 -16 -3 0 6 5 14 11 18 6 3 9 17 6 30 -2 13 0 24 6 24 5 0 5 6 -2 14 -19 22
8 26 193 26 193 0 206 4 227 68 6 20 17 40 23 44 6 4 41 8 79 8 l67 0 0 -48
c0 -61 -39 -141 -88 -182 -65 -53 -109 -60 -382 -60 -284 1 -314 7 -384 75
-69 67 -79 113 -75 354 4 193 4 197 32 243 49 84 125 127 226 128 l64 0 -44
-32z m501 11 c25 -11 58 -32 74 -47 39 -37 76 -118 76 -169 l0 -43 -75 0 -76
0 -19 44 c-10 25 -28 49 -39 55 -11 6 -66 11 -123 11 -57 0 -140 3 -185 6
l-81 7 1 53 c1 30 -2 56 -8 58 -5 3 -1 5 10 6 l20 1 -20 9 c-19 8 -19 9 3 9
13 1 20 5 17 11 -4 7 61 10 187 10 172 0 198 -3 238 -21z m2365 -200 c49 -13
83 -43 102 -88 17 -40 14 -45 -33 -43 -26 1 -43 10 -64 32 -21 22 -37 30 -63
30 -57 0 -89 -16 -85 -43 3 -24 28 -34 141 -57 80 -16 122 -53 122 -107 0 -60
-26 -90 -92 -109 -126 -36 -256 15 -265 106 -3 23 0 25 40 26 37 1 45 -2 52
-22 12 -31 40 -44 93 -44 30 0 52 7 68 20 l24 20 -22 19 c-12 10 -50 24 -85
30 -34 6 -82 21 -107 33 -38 19 -48 30 -55 60 -26 103 93 174 229 137z m-1815
-39 l0 -40 -100 0 -100 0 0 -40 0 -40 91 0 90 0 -3 -37 -3 -38 -87 -3 -88 -3
0 -74 0 -75 -50 0 -50 0 0 195 0 195 150 0 150 0 0 -40z m140 -115 l0 -155 85
0 c80 0 85 -1 89 -22 12 -59 14 -58 -136 -58 l-138 0 0 195 0 195 50 0 50 0 0
-155z m310 -40 l0 -195 -45 0 -45 0 0 195 0 195 45 0 45 0 0 -195z m181 126
l37 -63 37 66 37 66 102 0 102 0 24 -97 c45 -188 36 -184 84 -37 41 126 43
129 71 129 29 0 30 -2 70 -130 l42 -130 20 80 c12 44 27 104 34 133 l13 52 47
0 47 0 -30 -112 c-17 -62 -40 -149 -52 -193 l-21 -80 -50 -3 -51 -3 -34 113
-35 112 -35 -112 -35 -112 -50 0 -50 0 -49 190 c-28 105 -53 190 -57 190 -5 0
-33 -41 -63 -91 l-54 -91 55 -92 c30 -50 57 -94 60 -98 2 -5 -20 -8 -49 -8
-53 0 -53 0 -80 48 -53 94 -50 93 -92 18 l-37 -66 -49 0 c-28 0 -50 3 -50 6 0
3 25 48 56 100 l56 94 -56 90 c-31 50 -56 93 -56 96 0 3 23 4 52 2 l52 -3 37
-64z m889 -126 l0 -195 -45 0 -45 0 0 195 0 195 45 0 45 0 0 -195z m560 115
l0 -80 85 0 85 0 0 80 0 80 45 0 45 0 0 -195 0 -195 -45 0 -45 0 0 75 0 75
-85 0 -85 0 0 -75 0 -75 -45 0 -45 0 0 195 0 195 45 0 45 0 0 -80z m-2797 -68
c20 -18 22 -45 5 -60 -18 -14 -179 -106 -201 -115 -10 -4 -16 -3 -12 2 3 6 -2
14 -10 19 -9 5 -18 15 -19 23 -8 41 -19 69 -27 69 -5 0 -9 24 -9 53 l0 54 30
-5 c22 -3 30 0 30 11 0 9 10 23 22 31 21 15 27 13 97 -25 42 -23 84 -48 94
-57z"/>
</g>
</svg>
